<svg xmlns="http://www.w3.org/2000/svg" xmlns:xlink="http://www.w3.org/1999/xlink" viewBox="0,0,256,256" width="48px" height="48px" fill-rule="nonzero"><g fill="#005000" fill-rule="nonzero" stroke="none" stroke-width="1" stroke-linecap="butt" stroke-linejoin="miter" stroke-miterlimit="10" stroke-dasharray="" stroke-dashoffset="0" font-family="none" font-weight="none" font-size="none" text-anchor="none" style="mix-blend-mode: normal"><g transform="scale(10.66667,10.66667)"><path d="M12,2c-5.53333,0 -10,4.46667 -10,10c0,5.53333 4.46667,10 10,10c5.53333,0 10,-4.46667 10,-10c0,-5.53333 -4.46667,-10 -10,-10zM12,4c4.46667,0 8,3.53333 8,8c0,4.46667 -3.53333,8 -8,8c-4.46667,0 -8,-3.53333 -8,-8c0,-4.46667 3.53333,-8 8,-8zM16.29297,8.29297l-6.29297,6.29297l-2.29297,-2.29297l-1.41406,1.41406l3.70703,3.70703l7.70703,-7.70703z"></path></g></g></svg>